<svg width="601" height="154" viewBox="0 0 601 154" fill="none" xmlns="http://www.w3.org/2000/svg">
<path d="M0.58 90L7.54 51.72H20.01L29.058 78.052L33.872 51.72L40.31 51.778L33.234 90H19.952L11.6 64.654L6.96 90H0.58ZM44.2613 88.26C43.3719 87.2547 42.7146 85.9593 42.2893 84.374C41.9026 82.7887 41.7093 80.7007 41.7093 78.11C41.7093 75.5193 42.1539 73.0447 43.0433 70.686C43.9326 68.3273 45.1893 66.2973 46.8133 64.596C50.1386 61.0387 54.5466 59.26 60.0373 59.26C62.0093 59.26 63.7106 59.5887 65.1413 60.246L75.0593 59.26L70.7673 81.88C70.6513 82.344 70.5932 83.0013 70.5932 83.852C70.5932 84.7027 70.8446 85.3987 71.3473 85.94C71.8886 86.4813 72.5459 86.7907 73.3193 86.868C72.9326 88.1827 72.0239 89.2267 70.5932 90C69.2013 90.7733 67.7126 91.16 66.1273 91.16C64.5419 91.16 63.2079 90.8507 62.1253 90.232C61.0813 89.652 60.4046 88.8593 60.0953 87.854C59.4766 88.8207 58.5099 89.6133 57.1953 90.232C55.8806 90.8507 54.3339 91.16 52.5553 91.16C50.8153 91.16 49.2299 90.928 47.7993 90.464C46.3686 90 45.1893 89.2653 44.2613 88.26ZM56.4993 64.712C56.0739 65.408 55.6679 66.3553 55.2812 67.554C54.8946 68.714 54.3726 70.8793 53.7153 74.05C53.0966 77.182 52.7873 79.8693 52.7873 82.112C52.7873 84.3547 52.9613 85.8047 53.3093 86.462C53.6573 87.1193 54.1406 87.448 54.7593 87.448C55.9966 87.448 57.0599 86.868 57.9493 85.708C58.8773 84.5093 59.5153 82.866 59.8633 80.778L62.9373 63.784C62.1253 63.088 61.2359 62.74 60.2693 62.74C59.3413 62.74 58.5873 62.8947 58.0073 63.204C57.4659 63.5133 56.9633 64.016 56.4993 64.712ZM89.3232 90.58C87.5058 90.1933 86.1138 89.9227 85.1472 89.768C84.2192 89.5747 83.1945 89.478 82.0732 89.478C80.9905 89.478 79.9078 89.6713 78.8252 90.058C78.2452 89.71 77.7618 89.188 77.3752 88.492C77.0272 87.796 76.8532 86.9067 76.8532 85.824C76.8532 83.5427 78.0132 81.532 80.3332 79.792L95.0652 69.178C92.3198 68.4047 89.6905 68.018 87.1772 68.018C84.7025 68.018 83.0205 68.8687 82.1312 70.57C80.8165 69.0233 80.1592 67.032 80.1592 64.596C80.1592 62.972 80.7392 61.638 81.8992 60.594C83.0978 59.5113 84.9345 58.97 87.4092 58.97C88.8012 58.97 90.1158 59.0667 91.3532 59.26C92.6292 59.4147 93.8278 59.5693 94.9492 59.724L98.0812 60.188C99.0865 60.3427 100.092 60.42 101.097 60.42C102.141 60.42 103.05 60.2073 103.823 59.782C104.829 60.71 105.331 61.812 105.331 63.088C105.331 65.0987 104.094 67.148 101.619 69.236L86.9452 80.198C89.9612 81.0873 92.2425 81.532 93.7892 81.532C97.0372 81.532 99.3572 80.7587 100.749 79.212C101.832 80.4493 102.373 82.1507 102.373 84.316C102.373 86.4427 101.677 88.1247 100.285 89.362C98.8932 90.5607 96.9405 91.16 94.4272 91.16C92.8805 91.16 91.1792 90.9667 89.3232 90.58ZM130.904 80.198C131.87 80.8553 132.354 81.9187 132.354 83.388C132.354 84.8187 131.986 85.998 131.252 86.926C130.517 87.854 129.55 88.6273 128.352 89.246C125.877 90.522 123.306 91.16 120.638 91.16C117.97 91.16 115.843 90.87 114.258 90.29C112.711 89.71 111.416 88.8787 110.372 87.796C108.322 85.7467 107.298 82.8467 107.298 79.096C107.298 73.2573 108.883 68.5593 112.054 65.002C115.456 61.174 120.116 59.26 126.032 59.26C129.705 59.26 132.45 60.0333 134.268 61.58C135.621 62.74 136.298 64.2673 136.298 66.162C136.298 72.9673 130.42 76.37 118.666 76.37C118.511 77.3753 118.434 78.3033 118.434 79.154C118.434 80.9327 118.82 82.17 119.594 82.866C120.406 83.5233 121.546 83.852 123.016 83.852C124.485 83.852 125.993 83.5233 127.54 82.866C129.125 82.17 130.246 81.2807 130.904 80.198ZM119.072 73.876C121.817 73.876 123.982 73.0253 125.568 71.324C127.153 69.7 127.946 67.5927 127.946 65.002C127.946 64.1127 127.772 63.436 127.424 62.972C127.114 62.4693 126.631 62.218 125.974 62.218C125.316 62.218 124.698 62.3533 124.118 62.624C123.576 62.856 123.016 63.3973 122.436 64.248C121.005 66.1813 119.884 69.3907 119.072 73.876ZM161.773 80.198C162.74 80.8553 163.223 81.9187 163.223 83.388C163.223 84.8187 162.856 85.998 162.121 86.926C161.386 87.854 160.42 88.6273 159.221 89.246C156.746 90.522 154.175 91.16 151.507 91.16C148.839 91.16 146.712 90.87 145.127 90.29C143.58 89.71 142.285 88.8787 141.241 87.796C139.192 85.7467 138.167 82.8467 138.167 79.096C138.167 73.2573 139.752 68.5593 142.923 65.002C146.326 61.174 150.985 59.26 156.901 59.26C160.574 59.26 163.32 60.0333 165.137 61.58C166.49 62.74 167.167 64.2673 167.167 66.162C167.167 72.9673 161.29 76.37 149.535 76.37C149.38 77.3753 149.303 78.3033 149.303 79.154C149.303 80.9327 149.69 82.17 150.463 82.866C151.275 83.5233 152.416 83.852 153.885 83.852C155.354 83.852 156.862 83.5233 158.409 82.866C159.994 82.17 161.116 81.2807 161.773 80.198ZM149.941 73.876C152.686 73.876 154.852 73.0253 156.437 71.324C158.022 69.7 158.815 67.5927 158.815 65.002C158.815 64.1127 158.641 63.436 158.293 62.972C157.984 62.4693 157.5 62.218 156.843 62.218C156.186 62.218 155.567 62.3533 154.987 62.624C154.446 62.856 153.885 63.3973 153.305 64.248C151.874 66.1813 150.753 69.3907 149.941 73.876ZM210.912 91.16C206.233 91.16 203.894 89.3427 203.894 85.708C203.894 84.1227 204.223 81.8027 204.88 78.748C205.576 75.6547 206.04 73.4893 206.272 72.252C206.813 69.4293 207.084 67.5733 207.084 66.684C207.084 64.712 206.349 63.726 204.88 63.726C203.913 63.726 202.966 64.4027 202.038 65.756C201.11 67.0707 200.433 69.062 200.008 71.73L196.412 90L185.102 91.16L188.234 75.384C188.582 73.644 188.911 71.788 189.22 69.816C189.529 67.844 189.684 66.7033 189.684 66.394C189.684 64.6153 189.027 63.726 187.712 63.726C186.823 63.726 185.895 64.3833 184.928 65.698C183.961 67.0127 183.207 69.0233 182.666 71.73L179.128 90L167.702 91.16L173.792 60.42L183.246 59.26L182.26 65.118C183.265 63.03 184.696 61.5413 186.552 60.652C188.408 59.724 190.786 59.26 193.686 59.26C195.349 59.26 196.721 59.666 197.804 60.478C198.887 61.29 199.602 62.3533 199.95 63.668C200.607 62.3147 201.767 61.2513 203.43 60.478C205.131 59.666 207.007 59.26 209.056 59.26C211.144 59.26 212.691 59.492 213.696 59.956C214.74 60.3813 215.571 60.9613 216.19 61.696C217.234 63.0493 217.756 64.9633 217.756 67.438C217.756 69.874 217.234 73.6247 216.19 78.69C215.649 81.1647 215.378 82.866 215.378 83.794C215.378 84.6833 215.629 85.3987 216.132 85.94C216.673 86.4813 217.331 86.7907 218.104 86.868C217.717 88.1827 216.847 89.2267 215.494 90C214.179 90.7733 212.652 91.16 210.912 91.16Z" fill="black"/>
<path d="M284.266 34.752C283.965 35.7539 268.539 100.143 268.539 100.354C268.539 100.512 270.516 100.617 273.609 100.617C278.207 100.617 278.68 100.564 278.852 100.195C278.937 99.9844 282.504 85.2715 286.758 67.5528C291.055 49.834 294.578 35.1738 294.621 34.9102C294.707 34.541 294.363 34.4883 289.551 34.4883C285.555 34.4356 284.309 34.541 284.266 34.752Z" fill="#3D5A00"/>
<path d="M248.559 57.0059L230.297 67.3945L230.34 72.3516L230.383 77.3086L248.602 87.6973L266.82 98.0332L266.863 91.4414C266.863 87.8555 266.863 84.7969 266.777 84.6914C266.691 84.586 261.578 81.8438 255.434 78.5215C249.289 75.1992 244.176 72.457 244.09 72.3516C244.004 72.2461 249.074 69.4512 255.262 66.1289C261.492 62.8067 266.648 60.0117 266.734 59.9063C266.82 59.8535 266.863 56.7949 266.82 53.1563V46.6172L248.559 57.0059Z" fill="#3D5A00"/>
<path d="M295.094 53.3145L295.137 60.0117L306.781 66.1289C313.184 69.5039 318.426 72.2988 318.426 72.3516C318.426 72.4043 313.184 75.1992 306.824 78.5742C300.465 81.9492 295.18 84.7969 295.137 84.9024C295.094 85.0078 295.094 88.0664 295.094 91.5996L295.137 98.0332L313.355 87.8027L331.574 77.5723L331.617 72.3516L331.66 67.1309L313.699 57.0586C303.816 51.5215 295.566 46.8809 295.352 46.7754C295.094 46.6172 295.051 46.9336 295.094 53.3145Z" fill="#3D5A00"/>
<path d="M362.328 70.642C362.869 69.2113 363.14 67.8773 363.14 66.64C363.14 64.3587 362.212 63.218 360.356 63.218C359.389 63.218 358.5 63.6627 357.688 64.552C356.915 65.4027 356.528 66.3693 356.528 67.452C356.528 68.2253 356.837 68.9213 357.456 69.54C358.345 70.3907 359.931 71.512 362.212 72.904C364.493 74.296 366.059 75.572 366.91 76.732C367.799 77.8533 368.244 79.2067 368.244 80.792C368.244 82.3387 367.857 83.8273 367.084 85.258C366.349 86.6887 365.305 87.9067 363.952 88.912C361.052 91.0773 357.282 92.16 352.642 92.16C350.129 92.16 347.905 91.5027 345.972 90.188C344.039 88.912 343.072 87.52 343.072 86.012C343.072 84.504 343.613 83.3053 344.696 82.416C345.817 81.5267 347.19 81.082 348.814 81.082C350.438 81.082 351.753 81.3913 352.758 82.01C352.255 83.286 352.004 84.3493 352.004 85.2C352.004 87.752 353.087 89.028 355.252 89.028C356.18 89.028 356.953 88.738 357.572 88.158C358.191 87.578 358.5 86.7853 358.5 85.78C358.5 83.808 356.837 81.778 353.512 79.69C350.805 77.9113 349.143 76.674 348.524 75.978C347.48 74.7407 346.958 73.3487 346.958 71.802C346.958 70.2553 347.325 68.7473 348.06 67.278C348.795 65.8087 349.839 64.552 351.192 63.508C354.015 61.3427 357.881 60.26 362.792 60.26C365.305 60.26 367.297 60.7627 368.766 61.768C370.274 62.7733 371.028 64.1267 371.028 65.828C371.028 67.5293 370.506 68.8633 369.462 69.83C368.457 70.7967 367.026 71.28 365.17 71.28C363.894 71.28 362.947 71.0673 362.328 70.642ZM385.837 92.16C377.33 92.16 373.077 88.158 373.077 80.154C373.077 74.47 374.643 69.7913 377.775 66.118C381.1 62.2127 385.644 60.26 391.405 60.26C395.581 60.26 398.732 61.2267 400.859 63.16C402.986 65.0933 404.049 68.09 404.049 72.15C404.049 78.3367 402.386 83.228 399.061 86.824C395.813 90.3813 391.405 92.16 385.837 92.16ZM387.345 66.93C386.881 67.974 386.456 69.2887 386.069 70.874C385.721 72.4207 385.315 74.4313 384.851 76.906C384.387 79.3807 384.155 82.1453 384.155 85.2C384.155 86.2053 384.31 87.0367 384.619 87.694C384.967 88.3513 385.586 88.68 386.475 88.68C387.364 88.68 388.08 88.4673 388.621 88.042C389.201 87.6167 389.704 86.9013 390.129 85.896C390.902 84.1173 391.598 81.5847 392.217 78.298C392.836 74.9727 393.164 72.5947 393.203 71.164C393.28 69.7333 393.319 68.496 393.319 67.452C393.319 66.3693 393.164 65.48 392.855 64.784C392.546 64.088 391.946 63.74 391.057 63.74C390.206 63.74 389.491 64.0107 388.911 64.552C388.331 65.0933 387.809 65.886 387.345 66.93ZM421.323 87.81C420.124 90.71 417.611 92.16 413.783 92.16C411.849 92.16 410.264 91.4833 409.027 90.13C408.021 89.0087 407.519 87.81 407.519 86.534C407.519 83.634 408.195 79.0133 409.549 72.672L413.783 50.4L425.557 49.24L419.931 78.588C419.273 81.4493 418.945 83.3827 418.945 84.388C418.945 86.592 419.737 87.7327 421.323 87.81ZM444.883 88.564C443.027 90.9613 439.799 92.16 435.197 92.16C432.8 92.16 430.731 91.4447 428.991 90.014C427.251 88.5447 426.381 86.766 426.381 84.678C426.381 83.518 426.439 82.648 426.555 82.068L430.441 61.42L442.215 60.26L437.981 82.648C437.827 83.4987 437.749 84.1753 437.749 84.678C437.749 86.9207 438.426 88.042 439.779 88.042C441.287 88.042 442.583 87.0173 443.665 84.968C444.013 84.3107 444.265 83.5567 444.419 82.706L448.537 61.42L459.963 60.26L455.671 82.88C455.555 83.46 455.497 84.0593 455.497 84.678C455.497 85.2967 455.671 85.954 456.019 86.65C456.367 87.3073 457.102 87.7133 458.223 87.868C457.991 88.796 457.469 89.5693 456.657 90.188C454.956 91.5027 453.177 92.16 451.321 92.16C449.504 92.16 448.054 91.8313 446.971 91.174C445.889 90.5167 445.193 89.6467 444.883 88.564ZM464.01 85.2C464.01 84.156 464.28 82.3193 464.822 79.69L467.896 64.03H464.474L464.706 62.29C469.346 60.898 473.908 58.5007 478.394 55.098H481.178L479.786 61.42H484.31L483.788 64.03H479.322L476.364 79.69C475.861 82.0873 475.61 83.692 475.61 84.504C475.61 86.36 476.422 87.4813 478.046 87.868C477.659 89.1827 476.77 90.2267 475.378 91C473.986 91.7733 472.304 92.16 470.332 92.16C468.36 92.16 466.813 91.5413 465.692 90.304C464.57 89.0667 464.01 87.3653 464.01 85.2ZM497.959 87.81C496.76 90.71 494.247 92.16 490.419 92.16C488.447 92.16 486.842 91.4833 485.605 90.13C484.561 88.9313 484.039 87.7327 484.039 86.534C484.039 83.402 484.754 78.7813 486.185 72.672L488.331 61.42L500.105 60.26L496.567 78.588C495.909 81.4493 495.581 83.3827 495.581 84.388C495.581 86.592 496.373 87.7327 497.959 87.81ZM489.375 53.358C489.375 51.85 489.993 50.69 491.231 49.878C492.507 49.066 494.053 48.66 495.871 48.66C497.688 48.66 499.138 49.066 500.221 49.878C501.342 50.69 501.903 51.85 501.903 53.358C501.903 54.866 501.284 56.0067 500.047 56.78C498.848 57.5533 497.34 57.94 495.523 57.94C493.705 57.94 492.217 57.5533 491.057 56.78C489.935 56.0067 489.375 54.866 489.375 53.358ZM515.544 92.16C507.037 92.16 502.784 88.158 502.784 80.154C502.784 74.47 504.35 69.7913 507.482 66.118C510.807 62.2127 515.351 60.26 521.112 60.26C525.288 60.26 528.439 61.2267 530.566 63.16C532.693 65.0933 533.756 68.09 533.756 72.15C533.756 78.3367 532.093 83.228 528.768 86.824C525.52 90.3813 521.112 92.16 515.544 92.16ZM517.052 66.93C516.588 67.974 516.163 69.2887 515.776 70.874C515.428 72.4207 515.022 74.4313 514.558 76.906C514.094 79.3807 513.862 82.1453 513.862 85.2C513.862 86.2053 514.017 87.0367 514.326 87.694C514.674 88.3513 515.293 88.68 516.182 88.68C517.071 88.68 517.787 88.4673 518.328 88.042C518.908 87.6167 519.411 86.9013 519.836 85.896C520.609 84.1173 521.305 81.5847 521.924 78.298C522.543 74.9727 522.871 72.5947 522.91 71.164C522.987 69.7333 523.026 68.496 523.026 67.452C523.026 66.3693 522.871 65.48 522.562 64.784C522.253 64.088 521.653 63.74 520.764 63.74C519.913 63.74 519.198 64.0107 518.618 64.552C518.038 65.0933 517.516 65.886 517.052 66.93ZM561.702 92.16C557.023 92.16 554.684 90.3427 554.684 86.708C554.722 85.7027 554.896 84.3493 555.206 82.648L556.25 77.312C557.294 72.2853 557.816 69.2113 557.816 68.09C557.816 65.8473 557.158 64.726 555.844 64.726C553.64 64.726 551.958 67.6067 550.798 73.368L547.376 91L535.718 92.16L541.75 61.362L551.262 60.26L550.334 65.944C552.151 62.1547 555.844 60.26 561.412 60.26C564.118 60.26 566.032 60.84 567.154 62C568.314 63.1213 568.894 64.958 568.894 67.51C568.894 69.9073 568.275 73.9093 567.038 79.516C566.458 82.0293 566.168 83.7693 566.168 84.736C566.168 85.664 566.419 86.3987 566.922 86.94C567.463 87.4813 568.12 87.7907 568.894 87.868C568.507 89.1827 567.637 90.2267 566.284 91C564.969 91.7733 563.442 92.16 561.702 92.16ZM590.873 70.642C591.414 69.2113 591.685 67.8773 591.685 66.64C591.685 64.3587 590.757 63.218 588.901 63.218C587.934 63.218 587.045 63.6627 586.233 64.552C585.46 65.4027 585.073 66.3693 585.073 67.452C585.073 68.2253 585.382 68.9213 586.001 69.54C586.89 70.3907 588.476 71.512 590.757 72.904C593.038 74.296 594.604 75.572 595.455 76.732C596.344 77.8533 596.789 79.2067 596.789 80.792C596.789 82.3387 596.402 83.8273 595.629 85.258C594.894 86.6887 593.85 87.9067 592.497 88.912C589.597 91.0773 585.827 92.16 581.187 92.16C578.674 92.16 576.45 91.5027 574.517 90.188C572.584 88.912 571.617 87.52 571.617 86.012C571.617 84.504 572.158 83.3053 573.241 82.416C574.362 81.5267 575.735 81.082 577.359 81.082C578.983 81.082 580.298 81.3913 581.303 82.01C580.8 83.286 580.549 84.3493 580.549 85.2C580.549 87.752 581.632 89.028 583.797 89.028C584.725 89.028 585.498 88.738 586.117 88.158C586.736 87.578 587.045 86.7853 587.045 85.78C587.045 83.808 585.382 81.778 582.057 79.69C579.35 77.9113 577.688 76.674 577.069 75.978C576.025 74.7407 575.503 73.3487 575.503 71.802C575.503 70.2553 575.87 68.7473 576.605 67.278C577.34 65.8087 578.384 64.552 579.737 63.508C582.56 61.3427 586.426 60.26 591.337 60.26C593.85 60.26 595.842 60.7627 597.311 61.768C598.819 62.7733 599.573 64.1267 599.573 65.828C599.573 67.5293 599.051 68.8633 598.007 69.83C597.002 70.7967 595.571 71.28 593.715 71.28C592.439 71.28 591.492 71.0673 590.873 70.642Z" fill="black"/>
</svg>
